<svg xmlns="http://www.w3.org/2000/svg" width="139" height="50" fill="none" viewBox="0 0 139 50"><g clip-path="url(#a)"><path fill="#9c9c9c" d="M24.912 10.784 20.31 39.082h-6.612l1.68-10.218H8.256L6.61 39.082H0l4.639-28.298h6.575L9.242 22.732h7.122l1.974-11.948zm13.561 28.298.22-6.17h-6.1l-1.79 6.17h-6.977l9.388-28.298h12.053l.147 28.298zm-1.497-21.42-2.885 9.983h4.785l.401-9.982zm36.807-6.878L69.18 39.082h-6.612l-4.601-15.484-2.484 15.485H48.87l4.639-28.299h6.794l4.53 14.464 2.373-14.464zm15.425 0q4.785 0 6.83 2.594 1.498 1.965 1.497 4.913 0 1.061-.181 2.24l-1.425 8.765q-.731 4.44-3.58 7.114-2.85 2.672-7.38 2.672H74.34l4.64-28.298zm-2.302 6.132h-2.374L81.939 32.95h3.47q1.716 0 2.666-.982.987-1.023 1.35-3.301l1.061-6.446q.138-.781.146-1.573 0-3.733-3.726-3.732m30.206 22.166H98.775l4.641-28.298h18.337l-1.023 6.132h-11.762l-.84 5.306h9.716l-1.022 6.13h-9.717l-.73 4.599h11.762zm20.865 0H121.32l4.64-28.298h6.575l-3.616 22.167H139zm-64.506 5.036h63.543L135.029 50H71.486zM6.95 0h69.5l-1.986 5.882h-69.5z"/></g><defs><clipPath id="a"><path fill="#fff" d="M0 0h139v50H0z"/></clipPath></defs></svg>