<svg xmlns="http://www.w3.org/2000/svg" width="32" height="23" fill="none" viewBox="0 0 32 23"><path fill="url(#a)" d="M31.33 3.521A4.02 4.02 0 0 0 28.502.673C26.007 0 16 0 16 0S5.993 0 3.497.673A4.02 4.02 0 0 0 .67 3.521C0 6.033 0 11.273 0 11.273s0 5.24.67 7.752a4.02 4.02 0 0 0 2.829 2.848c2.494.674 12.501.674 12.501.674s10.007 0 12.503-.674a4.02 4.02 0 0 0 2.829-2.848C32 16.513 32 11.273 32 11.273s0-5.24-.67-7.752m-18.603 12.51V6.516l8.364 4.757z"/><defs><linearGradient id="a" x1="0" x2="32" y1="11.273" y2="11.273" gradientUnits="userSpaceOnUse"><stop stop-color="#ffbf00"/><stop offset="1" stop-color="#f2a60c"/></linearGradient></defs></svg>