<svg xmlns="http://www.w3.org/2000/svg" width="32" height="32" fill="none" viewBox="0 0 32 32"><path fill="url(#a)" d="M27.938 12.024c-.158.291-.251.63-.27.98s.035.702.158 1.018c.397 1.156.677 2.37.832 3.615.412 3.217.027 6.513-1.104 9.449a1.9 1.9 0 0 1-.593.777 1.37 1.37 0 0 1-.83.282H5.89c-.294 0-.582-.1-.834-.29a1.9 1.9 0 0 1-.59-.79C3.44 24.473 3 21.58 3.189 18.698s1-5.647 2.35-7.998c1.347-2.352 3.182-4.203 5.306-5.355s4.46-1.564 6.757-1.19c1.162.17 2.299.547 3.376 1.118.253.155.534.223.815.199.281-.025.552-.142.785-.339.243-.2.438-.478.563-.806.126-.328.178-.692.15-1.054a2.3 2.3 0 0 0-.308-.998 1.7 1.7 0 0 0-.677-.657c-3.09-1.655-6.52-2.052-9.803-1.134-3.282.918-6.248 3.103-8.479 6.246S.414 13.812.08 17.989c-.334 4.179.394 8.382 2.083 12.013.279.604.68 1.106 1.162 1.457.483.35 1.031.537 1.59.541h22.16a2.73 2.73 0 0 0 1.607-.531c.49-.351.895-.857 1.177-1.467 1.236-2.674 1.959-5.669 2.111-8.75s-.268-6.164-1.23-9.008a1.95 1.95 0 0 0-.55-.803 1.4 1.4 0 0 0-.799-.342 1.34 1.34 0 0 0-.827.214 1.8 1.8 0 0 0-.625.711"/><path fill="url(#b)" d="M13.746 17.198c-.6.75-.937 1.766-.937 2.826 0 .525.082 1.045.243 1.53s.397.926.694 1.297c.298.371.65.666 1.04.867.388.2.804.304 1.225.304.849 0 1.663-.421 2.264-1.171l9.056-16.96z"/><defs><linearGradient id="a" x1="0" x2="32" y1="16" y2="16" gradientUnits="userSpaceOnUse"><stop stop-color="#ffbf00"/><stop offset="1" stop-color="#f2a60c"/></linearGradient><linearGradient id="b" x1="12.809" x2="27.331" y1="14.957" y2="14.957" gradientUnits="userSpaceOnUse"><stop stop-color="#ffbf00"/><stop offset="1" stop-color="#f2a60c"/></linearGradient></defs></svg>