<svg xmlns="http://www.w3.org/2000/svg" width="20" height="20" fill="none" viewBox="0 0 20 20"><path fill="url(#a)" d="M10 0C4.75 0 0 3.273 0 8.334c0 3.233 3.063 7.035 9.175 11.415.231.162.526.251.831.251s.6-.09.831-.251C16.937 15.369 20 11.567 20 8.334 20 3.273 15.25 0 10 0m0 10.164c-1.375 0-2.5-.915-2.5-2.033 0-1.119 1.125-2.034 2.5-2.034s2.5.915 2.5 2.034-1.125 2.033-2.5 2.033"/><defs><linearGradient id="a" x1="0" x2="20" y1="10" y2="10" gradientUnits="userSpaceOnUse"><stop stop-color="#ffbf00"/><stop offset="1" stop-color="#f2a60c"/></linearGradient></defs></svg>