<svg xmlns="http://www.w3.org/2000/svg" width="20" height="20" fill="none" viewBox="0 0 20 20"><path fill="url(#a)" d="m18.04 13.64-2.828-.324a2.22 2.22 0 0 0-1.825.634L11.337 16a16.75 16.75 0 0 1-7.336-7.336l2.06-2.06a2.21 2.21 0 0 0 .634-1.827l-.322-2.805A2.23 2.23 0 0 0 4.156 0H2.231C.973 0-.073 1.047.004 2.305c.59 9.508 8.194 17.1 17.691 17.691 1.258.077 2.305-.969 2.305-2.227v-1.925a2.207 2.207 0 0 0-1.96-2.205"/><defs><linearGradient id="a" x1="0" x2="20" y1="10" y2="10" gradientUnits="userSpaceOnUse"><stop stop-color="#ffbf00"/><stop offset="1" stop-color="#f2a60c"/></linearGradient></defs></svg>