<svg xmlns="http://www.w3.org/2000/svg" width="32" height="32" fill="none" viewBox="0 0 32 32"><path fill="url(#a)" d="M16 10.182A5.817 5.817 0 0 0 10.182 16 5.817 5.817 0 0 0 16 21.818 5.817 5.817 0 0 0 21.818 16 5.817 5.817 0 0 0 16 10.182m13.004 4.364a13.08 13.08 0 0 0-11.55-11.55V1.455C17.455.655 16.8 0 16 0s-1.454.655-1.454 1.455v1.541a13.08 13.08 0 0 0-11.55 11.55H1.455C.655 14.546 0 15.2 0 16s.655 1.454 1.455 1.454h1.541a13.08 13.08 0 0 0 11.55 11.55v1.541c0 .8.654 1.455 1.454 1.455s1.454-.654 1.454-1.454v-1.542a13.08 13.08 0 0 0 11.55-11.55h1.541c.8 0 1.455-.654 1.455-1.454s-.654-1.454-1.454-1.454zM16 26.182A10.174 10.174 0 0 1 5.818 16c0-5.63 4.553-10.182 10.182-10.182S26.182 10.371 26.182 16 21.629 26.182 16 26.182"/><defs><linearGradient id="a" x1="0" x2="32" y1="16" y2="16" gradientUnits="userSpaceOnUse"><stop stop-color="#ffbf00"/><stop offset="1" stop-color="#f2a60c"/></linearGradient></defs></svg>