<svg xmlns="http://www.w3.org/2000/svg" width="32" height="32" fill="none" viewBox="0 0 32 32"><path fill="url(#a)" d="M28 10.667h-2V7.619C26 3.413 21.52 0 16 0S6 3.413 6 7.619v3.048H4c-2.2 0-4 1.371-4 3.047v15.238C0 30.63 1.8 32 4 32h24c2.2 0 4-1.371 4-3.048V13.714c0-1.676-1.8-3.047-4-3.047M16 24.38c-2.2 0-4-1.372-4-3.048s1.8-3.047 4-3.047 4 1.371 4 3.047-1.8 3.048-4 3.048m-6-13.714V7.619c0-2.53 2.68-4.571 6-4.571s6 2.042 6 4.571v3.048z"/><defs><linearGradient id="a" x1="0" x2="32" y1="16" y2="16" gradientUnits="userSpaceOnUse"><stop stop-color="#ffbf00"/><stop offset="1" stop-color="#f2a60c"/></linearGradient></defs></svg>