<svg xmlns="http://www.w3.org/2000/svg" width="32" height="32" fill="none" viewBox="0 0 32 32"><g clip-path="url(#a)"><circle cx="16" cy="16" r="16" fill="#fff"/><path fill="url(#b)" d="M23.583 13.499h-.888l-1.842-5.07A2.17 2.17 0 0 0 18.817 7h-1.734C16.488 7 16 7.487 16 8.083s.488 1.083 1.083 1.083h1.734l1.581 4.333h-5.21l-.39-1.083h.097c.596 0 1.083-.488 1.083-1.084 0-.595-.487-1.083-1.083-1.083h-3.228c-.596 0-1.084.488-1.084 1.083 0 .596.488 1.084 1.084 1.084h.812l1.972 5.415h-.726c-.477-2.415-2.502-4.202-5.037-4.321C5.654 13.358 3 15.882 3 18.914s2.383 5.416 5.417 5.416c2.665 0 4.82-1.83 5.308-4.332h4.55c.477 2.415 2.503 4.202 5.038 4.321C26.346 24.46 29 21.947 29 18.904c0-3.022-2.383-5.405-5.417-5.405M9.5 19.997h1.972c-.455 1.333-1.734 2.253-3.272 2.156-1.614-.098-2.957-1.462-3.033-3.087-.076-1.895 1.376-3.401 3.25-3.401 1.44 0 2.621.899 3.055 2.166H9.5c-.596 0-1.083.488-1.083 1.083 0 .596.487 1.083 1.083 1.083m8.775-2.166h-1.517l-.79-2.166h3.282a5.1 5.1 0 0 0-.975 2.166m5.178 4.333c-1.668-.065-3.076-1.484-3.12-3.163a3.23 3.23 0 0 1 1.138-2.556l.671 1.841a1.08 1.08 0 0 0 1.387.65 1.08 1.08 0 0 0 .65-1.386l-.682-1.874.01-.011a3.217 3.217 0 0 1 3.326 3.25c0 1.862-1.495 3.314-3.38 3.249"/></g><defs><linearGradient id="b" x1="3" x2="29" y1="15.665" y2="15.665" gradientUnits="userSpaceOnUse"><stop stop-color="#ffb60d"/><stop offset="1" stop-color="#e59317"/></linearGradient><clipPath id="a"><path fill="#fff" d="M0 0h32v32H0z"/></clipPath></defs></svg>